<?xml version="1.0" encoding="UTF-8" standalone="no"?>
<!-- Generator: Adobe Illustrator 23.1.1, SVG Export Plug-In . SVG Version: 6.00 Build 0)  -->

<svg
   version="1.1"
   id="Layer_1"
   x="0px"
   y="0px"
   viewBox="0 0 100.9 61.299998"
   xml:space="preserve"
   sodipodi:docname="msstate.svg"
   width="100.9"
   height="61.299999"
   inkscape:version="1.4.2 (ebf0e940d0, 2025-05-08)"
   xmlns:inkscape="http://www.inkscape.org/namespaces/inkscape"
   xmlns:sodipodi="http://sodipodi.sourceforge.net/DTD/sodipodi-0.dtd"
   xmlns="http://www.w3.org/2000/svg"
   xmlns:svg="http://www.w3.org/2000/svg"><defs
   id="defs33" /><sodipodi:namedview
   id="namedview33"
   pagecolor="#505050"
   bordercolor="#eeeeee"
   borderopacity="1"
   inkscape:showpageshadow="0"
   inkscape:pageopacity="0"
   inkscape:pagecheckerboard="0"
   inkscape:deskcolor="#505050"
   inkscape:zoom="5.7776448"
   inkscape:cx="53.741621"
   inkscape:cy="50.972327"
   inkscape:window-width="2560"
   inkscape:window-height="1297"
   inkscape:window-x="0"
   inkscape:window-y="0"
   inkscape:window-maximized="1"
   inkscape:current-layer="Layer_1" />
<style
   type="text/css"
   id="style1">
	.st0{fill:#5D1725;}
	.st1{fill:#FFFFFF;}
</style>


<g
   id="g33"
   transform="translate(-82.4,-12)">
	<path
   class="st0"
   d="m 165.6,26.8 c 6,2.3 11.7,5.2 16.9,8.6 l -3.8,8.3 4.6,14.8 c -3.5,-2.3 -7,-4.3 -10.2,-5.9 v 8.1 c -2.4,-1.4 -4.9,-2.7 -7.5,-3.8 v 3.4 l 3.6,5.5 v 7.5 H 145 V 51 c -0.9,-0.1 -1.8,-0.2 -2.6,-0.3 L 133,65.6 123.6,50.7 c -0.9,0.1 -1.8,0.2 -2.6,0.3 V 73.2 H 96.5 v -7.5 l 3.6,-5.5 V 56.8 C 97.5,58 95,59.2 92.6,60.6 v -8.1 c -3.1,1.6 -6.7,3.6 -10.2,5.9 L 87,43.7 83.2,35.4 C 88.4,32 94.1,29.1 100.1,26.8 V 25 L 96.5,19.2 V 12 h 22.7 l 8.8,13.7 c 1.6,-0.1 3.2,-0.2 4.8,-0.2 1.6,0 3.2,0.1 4.8,0.2 L 146.4,12 h 22.7 v 7.3 l -3.6,5.8 v 1.7 z"
   id="path28" />
	<path
   class="st1"
   d="m 100.1,29.4 c -5,2 -9.5,4.2 -13.8,6.9 l 3.3,7.2 -3,9.4 c 1.9,-1.1 3.9,-2.1 5.9,-3.1 v -14 c 2.3,-1.2 5.6,-2.8 7.5,-3.6 v -2.8 z"
   id="path29" />
	<path
   class="st1"
   d="m 132.8,47.6 c 12.7,0 26.1,3.2 37.7,9 V 37.4 c -11.5,-6 -25,-9.3 -37.7,-9.3 -12.6,0 -26.2,3.3 -37.7,9.3 v 19.2 c 11.6,-5.8 25.1,-9 37.7,-9 z"
   id="path30" />
	<path
   class="st1"
   d="m 165.6,29.4 c 5,2 9.5,4.2 13.8,6.9 l -3.3,7.2 3,9.4 c -1.9,-1.1 -3.9,-2.1 -5.9,-3.1 v -14 c -2.3,-1.2 -5.6,-2.8 -7.5,-3.6 v -2.8 z"
   id="path31" />
	<g
   id="g32">
		<path
   class="st0"
   d="m 125.7,35.1 c -0.8,0.1 -1.6,0.1 -2.4,0.2 v -1.6 l -2.6,0.3 v 9.2 c 0,0 1.2,-0.2 1.2,-0.2 v 2.4 c -1.8,0.2 -3.6,0.5 -5.4,0.9 v -2.4 l 1.2,-0.2 c 0,0 0,-9.2 0,-9.2 l -2.5,0.5 v 1.6 c -0.8,0.2 -1.5,0.3 -2.3,0.5 v -4 c 4.2,-1.1 8.4,-1.8 12.7,-2.1 v 4.1 z m -14.6,2 c -1,0.3 -2,0.6 -2.9,0.9 v -1 l -4.2,1.5 v 3.1 c 0,0 3.9,-1.4 5.4,-1.9 l 1.7,1.1 v 4.5 l -2.4,3 c -1.8,0.6 -3.7,1.2 -5.4,1.9 -0.7,-0.4 -1.4,-0.9 -2.1,-1.3 v -1.7 c 0.9,-0.4 1.9,-0.8 2.8,-1.1 v 1.6 l 0.4,-0.2 c 1.2,-0.4 3.8,-1.3 3.8,-1.3 v -4 c 0,0 -3.9,1.3 -5.5,2 l -1.5,-1 v -3.7 l 2.3,-3.2 c 1.8,-0.7 3.6,-1.3 5.4,-1.9 0.7,0.5 1.5,1 2.2,1.5 z m 39.6,-0.2 c -0.8,-0.2 -1.5,-0.3 -2.3,-0.5 v -1.6 l -2.5,-0.5 v 9.2 c 0,0 1.2,0.2 1.2,0.2 V 46 c -1.8,-0.3 -3.6,-0.6 -5.4,-0.8 v -2.4 l 1.2,0.1 c 0,0 0,-9.2 0,-9.2 l -2.5,-0.3 V 35 c -0.8,-0.1 -1.6,-0.1 -2.4,-0.2 v -4 c 4.3,0.3 8.6,0.9 12.7,1.9 z m 6.2,0.1 v 3.4 c 0,0 2.7,0.9 3.9,1.4 v 2.1 c -1.2,-0.4 -3.9,-1.4 -3.9,-1.4 v 3.7 l 4.2,1.5 v -1.1 c 1,0.4 1.9,0.7 2.8,1.1 v 3.4 c -3.6,-1.5 -7.4,-2.8 -11.1,-3.8 V 45 l 1.2,0.3 c 0,0 0,-9.2 0,-9.2 0,0 -1.2,-0.3 -1.2,-0.3 v -2.4 c 3.8,1 7.5,2.3 11.1,3.8 v 3.2 C 163,40 162,39.6 161.1,39.3 v -0.9 z m -25.2,-3.3 c 0,0 -1.6,4.4 -1.6,4.4 h 3.1 z m 7,11.3 c -1.7,-0.1 -3.4,-0.2 -5.1,-0.2 v -2.4 h 1.1 c 0,0 -0.8,-2.2 -0.8,-2.2 h -4.6 l -0.8,2.2 c 0,0 1.1,0 1.1,0 v 2.4 c -1.6,0.1 -3.3,0.2 -4.9,0.3 v -2.4 l 1.1,-0.1 c 0,0 4.2,-11.8 4.2,-11.8 1.1,0 2.2,0 3.3,0 l 4,11.7 c 0,0 0.9,0.1 1.2,0.1 V 45 Z"
   id="path32" />
	</g>
</g>
</svg>
